<svg xmlns="http://www.w3.org/2000/svg" width="675" height="277" viewBox="0 0 141.75 274.23"><g transform="translate(0 -22.77)"><rect width="668.25" height="274.23" x="-263.25" y="22.77" rx="6.75" ry="9.233" fill="#f9f9f9"/><circle cx="-243.45" cy="-41.801" transform="scale(1 -1)" r="4.95" fill="#ff5f56"/><circle cx="-228.6" cy="-41.801" transform="scale(1 -1)" r="4.95" fill="#ffbd2e"/><circle cx="-213.75" cy="-41.801" transform="scale(1 -1)" r="4.95" fill="#27c93f"/><g aria-label="$ npx vibrant-colors ./my-photo.jpg Vibrant #b68051 LightVibrant #d7baa1 DarkVibrant #7c2b15 Muted #6c8394 LightMuted #c4ccd4 DarkMuted #425c6a" style="line-height:.75" font-weight="400" font-size="39.6" font-family="sans-serif" letter-spacing="0" word-spacing="0" stroke-width=".99"><path d="M-240.773 75.68q1.307.142 2.424.665 1.116.5 1.924 1.236l-1.212 1.259q-1.402-1.283-3.136-1.497v5.394q2.09.689 3.326 1.853 1.236 1.164 1.236 3.184 0 1.782-1.188 3.088-1.188 1.284-3.374 1.569V95.9h-1.616v-3.398q-1.544-.071-2.803-.69-1.26-.64-2.163-1.52l1.188-1.33q1.687 1.687 3.778 1.853v-6.558q-2.138-.713-3.255-1.806-1.093-1.116-1.093-2.732 0-.974.475-1.853.5-.88 1.474-1.45.997-.594 2.4-.736v-3.564h1.615zm-1.616 1.71q-1.021.167-1.64.76-.593.571-.593 1.545 0 .88.475 1.45.499.57 1.758 1.069zm1.616 13.33q2.4-.475 2.4-2.923 0-1.021-.547-1.734-.546-.713-1.853-1.26zM-218.125 79.743h1.711l.167 1.758q.736-.95 1.853-1.473 1.14-.547 2.28-.547 3.517 0 3.517 3.707v9.076h-1.996v-7.603q0-1.402-.166-2.138-.142-.737-.594-1.093-.451-.357-1.378-.357-1.022 0-1.925.618-.902.618-1.473 1.473v9.1h-1.996zM-198.27 79.481q4.538 0 4.538 6.51 0 2.97-1.236 4.753-1.235 1.782-3.588 1.782-2.043 0-3.326-1.426v5.964l-1.996.237V79.743h1.71L-202 81.5q.69-.974 1.64-1.497.974-.523 2.09-.523zm-.476 1.616q-.95 0-1.758.57-.784.57-1.378 1.426v6.201q.499.737 1.236 1.165.76.403 1.639.403 1.568 0 2.328-1.188.785-1.211.785-3.682t-.69-3.683q-.689-1.212-2.162-1.212zM-188.35 92.264h-2.28l4.61-6.605-4.064-5.916h2.376l2.9 4.657 2.922-4.657h2.304l-4.063 5.821 4.61 6.7h-2.424l-3.445-5.37zM-150.637 79.743l-4.562 12.521h-2.304l-4.539-12.521h2.139l3.611 10.716 3.564-10.716zM-142.093 73.898q.666 0 1.07.404.404.38.404.998 0 .617-.404 1.021-.404.38-1.07.38-.641 0-1.045-.38-.38-.404-.38-1.021 0-.618.38-.998.404-.404 1.045-.404zm1.592 5.845v10.93h3.517v1.591h-9.362v-1.592h3.85v-9.337h-3.73v-1.592zM-130.602 81.382q1.45-1.9 3.588-1.9 2.4 0 3.54 1.71 1.14 1.71 1.14 4.8 0 2.946-1.306 4.752-1.307 1.782-3.66 1.782-2.162 0-3.397-1.568l-.143 1.306h-1.758V74.706l1.996-.238zm2.851 9.528q1.568 0 2.4-1.236.855-1.235.855-3.682 0-2.424-.76-3.66-.737-1.235-2.21-1.235-.95 0-1.758.57-.784.57-1.378 1.426v6.201q.499.76 1.236 1.188.736.428 1.615.428zM-109.893 79.481q.76 0 1.759.262l-.285 4.253h-1.616V81.31h-.119q-2.899 0-4.11 4.134v5.275h2.542v1.544h-6.51V90.72h1.972v-9.433h-1.972v-1.544h3.469l.38 2.97q.76-1.616 1.806-2.424 1.069-.808 2.684-.808zM-95.123 89.532q0 .736.238 1.093.237.333.784.499l-.5 1.425q-1.829-.237-2.28-1.782-.666.856-1.687 1.307-.998.452-2.234.452-1.877 0-2.97-1.046-1.069-1.045-1.069-2.803 0-1.925 1.497-2.97 1.52-1.046 4.348-1.046h1.853V83.64q0-1.33-.76-1.9-.76-.594-2.21-.594-1.425 0-3.255.641l-.546-1.52q2.21-.785 4.11-.785 2.281 0 3.47 1.07 1.21 1.069 1.21 2.97zm-5.18 1.497q.927 0 1.758-.475.856-.476 1.402-1.307v-3.208h-1.805q-1.996 0-2.875.665-.88.666-.88 1.949 0 2.376 2.4 2.376zM-89.858 79.743h1.711l.166 1.758q.737-.95 1.854-1.473 1.14-.547 2.28-.547 3.517 0 3.517 3.707v9.076h-1.996v-7.603q0-1.402-.166-2.138-.143-.737-.594-1.093-.451-.357-1.378-.357-1.022 0-1.925.618t-1.473 1.473v9.1h-1.996zM-65.655 91.623q-.642.427-1.569.665-.903.238-1.805.238-1.972 0-3.09-1.022-1.116-1.045-1.116-2.732V81.31h-2.875v-1.568h2.875v-2.828l1.996-.237v3.065h4.348l-.261 1.568h-4.087v7.437q0 1.069.57 1.592.57.522 1.83.522 1.283 0 2.4-.594zM-61.364 86.633v-1.71h9.504v1.71zM-41.439 90.815q1.64 0 3.255-1.093l.95 1.307q-.783.689-1.948 1.093-1.164.404-2.257.404-2.78 0-4.348-1.735-1.544-1.758-1.544-4.728 0-1.877.689-3.374.712-1.497 2.043-2.352 1.33-.856 3.16-.856 2.424 0 4.182 1.474l-.974 1.306q-1.64-1.093-3.232-1.093-1.687 0-2.708 1.26-.998 1.235-.998 3.635 0 2.4.998 3.588 1.021 1.164 2.732 1.164zM-28.095 79.481q2.59 0 3.968 1.759 1.402 1.734 1.402 4.752 0 2.946-1.426 4.752-1.402 1.782-3.968 1.782-2.59 0-3.991-1.735-1.402-1.758-1.402-4.776 0-2.97 1.402-4.752 1.425-1.782 4.015-1.782zm0 1.64q-1.64 0-2.447 1.212-.808 1.211-.808 3.682t.784 3.683q.808 1.188 2.447 1.188 1.64 0 2.424-1.188.808-1.212.808-3.706 0-2.471-.808-3.66-.784-1.211-2.4-1.211zM-13.73 89.176q0 1.686 2.068 1.686.974 0 2.09-.427l.523 1.45q-1.188.64-2.97.64-1.687 0-2.708-.926-.998-.927-.998-2.519V76.298h-3.85v-1.592h5.845zM.398 79.481q2.59 0 3.968 1.759 1.402 1.734 1.402 4.752 0 2.946-1.425 4.752Q2.94 92.526.375 92.526q-2.59 0-3.992-1.735-1.402-1.758-1.402-4.776 0-2.97 1.402-4.752 1.426-1.782 4.015-1.782zm0 1.64q-1.639 0-2.447 1.212-.808 1.211-.808 3.682t.784 3.683q.808 1.188 2.448 1.188t2.423-1.188q.808-1.212.808-3.706 0-2.471-.808-3.66-.784-1.211-2.4-1.211zM18.328 79.481q.76 0 1.758.262l-.285 4.253h-1.616V81.31h-.118q-2.9 0-4.11 4.134v5.275h2.541v1.544h-6.51V90.72h1.972v-9.433H9.988v-1.544h3.47l.38 2.97q.76-1.616 1.805-2.424 1.07-.808 2.685-.808zM28.393 90.886q1.425 0 2.257-.546.832-.547.832-1.45 0-.617-.214-.998-.214-.403-.856-.712-.641-.333-1.948-.666-2.186-.546-3.231-1.306-1.046-.784-1.046-2.305 0-1.568 1.307-2.495t3.445-.927q2.614 0 4.562 1.379l-.903 1.378q-.784-.547-1.639-.832-.855-.309-1.972-.309-2.709 0-2.709 1.64 0 .57.285.926.31.357.975.642.689.261 2.043.641 2.043.547 3.041 1.402 1.022.832 1.022 2.447 0 1.877-1.52 2.804-1.521.927-3.731.927-2.946 0-4.895-1.687l1.117-1.307q.76.618 1.735.998.974.356 2.043.356zM55.247 90.435q0-.88.594-1.473.618-.618 1.497-.618.903 0 1.497.618.594.594.594 1.473 0 .903-.594 1.497-.594.594-1.497.594-.88 0-1.497-.594-.594-.618-.594-1.497zM67.355 94.712l-1.615-.713 10.145-20.957 1.592.76zM89.348 79.481q1.069 0 1.734.76.69.737.69 2.71v9.313h-1.83v-8.981q0-1.307-.167-1.758-.166-.475-.807-.475-1.212 0-2.186 1.496v9.718h-1.854v-8.981q0-1.307-.166-1.758-.166-.475-.808-.475-1.212 0-2.186 1.496v9.718h-1.83V79.743h1.545l.143 1.473q.57-.832 1.188-1.283.641-.452 1.52-.452 1.759 0 2.258 1.664.57-.808 1.211-1.236.642-.428 1.545-.428zM101.385 92.336q-.737 2.162-2.02 3.445t-3.588 1.52l-.285-1.591q1.26-.214 1.996-.666.76-.427 1.188-1.093.428-.641.784-1.687h-.665l-4.348-12.521h2.114l3.588 11 3.54-11h2.068zM109.596 86.633v-1.71h9.504v1.71zM129.45 79.481q4.539 0 4.539 6.51 0 2.97-1.236 4.753-1.235 1.782-3.588 1.782-2.043 0-3.326-1.426v5.964l-1.996.237V79.743h1.71l.167 1.758q.69-.974 1.64-1.497.974-.523 2.09-.523zm-.475 1.616q-.95 0-1.758.57-.784.57-1.378 1.426v6.201q.499.737 1.236 1.165.76.403 1.639.403 1.568 0 2.328-1.188.785-1.211.785-3.682t-.69-3.683q-.689-1.212-2.162-1.212zM140.132 81.477q.737-.95 1.806-1.473 1.07-.523 2.21-.523 3.516 0 3.516 3.707v9.076h-1.996v-9.052q0-1.117-.523-1.616-.522-.523-1.663-.523-.974 0-1.877.618t-1.473 1.45v9.123h-1.996V74.73l1.996-.213zM157.159 79.481q2.59 0 3.968 1.759 1.401 1.734 1.401 4.752 0 2.946-1.425 4.752-1.402 1.782-3.968 1.782-2.59 0-3.992-1.735-1.402-1.758-1.402-4.776 0-2.97 1.402-4.752 1.426-1.782 4.016-1.782zm0 1.64q-1.64 0-2.448 1.212-.807 1.211-.807 3.682t.784 3.683q.808 1.188 2.447 1.188 1.64 0 2.423-1.188.808-1.212.808-3.706 0-2.471-.808-3.66-.784-1.211-2.4-1.211zM176.585 91.623q-.641.427-1.568.665-.903.238-1.806.238-1.972 0-3.089-1.022-1.116-1.045-1.116-2.732V81.31h-2.875v-1.568h2.875v-2.828l1.996-.237v3.065h4.348l-.262 1.568h-4.086v7.437q0 1.069.57 1.592.57.522 1.83.522 1.282 0 2.4-.594zM185.652 79.481q2.59 0 3.968 1.759 1.402 1.734 1.402 4.752 0 2.946-1.426 4.752-1.402 1.782-3.968 1.782-2.59 0-3.991-1.735-1.402-1.758-1.402-4.776 0-2.97 1.402-4.752 1.425-1.782 4.015-1.782zm0 1.64q-1.64 0-2.447 1.212-.808 1.211-.808 3.682t.784 3.683q.808 1.188 2.447 1.188 1.64 0 2.424-1.188.808-1.212.808-3.706 0-2.471-.808-3.66-.784-1.211-2.4-1.211zM197.76 90.435q0-.88.595-1.473.617-.618 1.496-.618.903 0 1.497.618.594.594.594 1.473 0 .903-.594 1.497-.594.594-1.497.594-.879 0-1.496-.594-.594-.618-.594-1.497zM215.714 73.898q.641 0 1.045.404.404.38.404.998 0 .617-.404 1.021-.404.38-1.045.38-.642 0-1.046-.38-.404-.404-.404-1.021 0-.618.404-.998.404-.404 1.046-.404zm1.853 16.37q0 3.018-2.02 4.681-1.995 1.687-5.94 2.352l-.332-1.544q3.017-.499 4.657-1.758 1.64-1.236 1.64-3.612v-9.052h-5.204v-1.592h7.2zM229.224 79.481q4.538 0 4.538 6.51 0 2.97-1.235 4.753-1.236 1.782-3.588 1.782-2.044 0-3.327-1.426v5.964l-1.995.237V79.743h1.71l.167 1.758q.689-.974 1.64-1.497.973-.523 2.09-.523zm-.475 1.616q-.95 0-1.758.57-.785.57-1.379 1.426v6.201q.5.737 1.236 1.165.76.403 1.64.403 1.568 0 2.328-1.188.784-1.211.784-3.682t-.69-3.683q-.688-1.212-2.161-1.212zM248.697 80.313q-.713.238-1.545.309-.831.047-2.114.047 2.186.998 2.186 3.16 0 1.901-1.26 3.09-1.259 1.164-3.445 1.164-1.117 0-1.877-.262-.285.214-.475.547-.166.332-.166.665 0 1.07 1.663 1.07h2.257q1.236 0 2.233.45 1.022.428 1.592 1.212.594.784.594 1.735 0 1.83-1.568 2.804-1.544.997-4.395.997-2.9 0-4.087-.902-1.188-.903-1.188-2.875h1.806q0 .784.285 1.235.309.475 1.045.69.76.237 2.139.237 2.02 0 2.97-.523.974-.523.974-1.544 0-.856-.784-1.33-.784-.452-2.02-.452h-2.233q-1.545 0-2.353-.666-.807-.689-.807-1.71 0-.594.356-1.165.356-.594 1.022-1.021-1.07-.547-1.592-1.378-.5-.856-.5-2.067 0-1.26.619-2.234.641-.998 1.758-1.544 1.14-.57 2.613-.57 2.139 0 3.255-.238 1.117-.238 2.448-.808zm-6.32.642q-1.45 0-2.186.784-.737.76-.737 2.09 0 1.331.737 2.139.76.784 2.233.784 1.33 0 2.02-.76.713-.784.713-2.186 0-2.851-2.78-2.851z" style="line-height:.99000001px;-inkscape-font-specification:'Fira Code'" font-size="23.76" font-family="Fira Code"/><path d="M-241.818 119.612l4.419-14.018h2.067l-5.465 16.37h-2.138l-5.465-16.37h2.21zM-227.62 103.598q.666 0 1.07.404.404.38.404.998 0 .617-.404 1.021-.404.38-1.07.38-.64 0-1.045-.38-.38-.404-.38-1.021 0-.618.38-.998.404-.404 1.046-.404zm1.593 5.845v10.93h3.516v1.591h-9.361v-1.592h3.849v-9.337h-3.73v-1.592zM-216.129 111.082q1.45-1.9 3.588-1.9 2.4 0 3.54 1.71 1.14 1.71 1.14 4.8 0 2.946-1.306 4.752-1.307 1.782-3.66 1.782-2.161 0-3.397-1.569l-.142 1.307h-1.759v-17.558l1.996-.238zm2.852 9.528q1.568 0 2.4-1.236.855-1.235.855-3.682 0-2.424-.76-3.66-.737-1.235-2.21-1.235-.95 0-1.759.57-.784.57-1.378 1.426v6.201q.5.76 1.236 1.188.736.428 1.616.428zM-195.42 109.181q.761 0 1.759.262l-.285 4.253h-1.616v-2.685h-.119q-2.898 0-4.11 4.134v5.275h2.542v1.544h-6.51v-1.544h1.972v-9.433h-1.972v-1.544h3.469l.38 2.97q.76-1.616 1.806-2.424 1.07-.808 2.685-.808zM-180.65 119.232q0 .736.238 1.093.237.332.784.499l-.5 1.425q-1.829-.237-2.28-1.782-.665.856-1.687 1.307-.998.452-2.233.452-1.878 0-2.97-1.046-1.07-1.045-1.07-2.803 0-1.925 1.497-2.97 1.52-1.046 4.348-1.046h1.854v-1.022q0-1.33-.76-1.9-.761-.594-2.21-.594-1.426 0-3.256.641l-.546-1.52q2.21-.785 4.11-.785 2.281 0 3.47 1.07 1.211 1.069 1.211 2.97zm-5.18 1.497q.927 0 1.759-.475.855-.476 1.402-1.307v-3.208h-1.806q-1.996 0-2.875.665-.88.666-.88 1.949 0 2.376 2.4 2.376zM-175.384 109.443h1.71l.167 1.758q.736-.95 1.853-1.473 1.14-.547 2.28-.547 3.517 0 3.517 3.707v9.076h-1.995v-7.603q0-1.402-.167-2.138-.142-.737-.594-1.093-.451-.357-1.378-.357-1.022 0-1.924.618-.903.618-1.474 1.473v9.1h-1.995zM-151.182 121.323q-.642.427-1.568.665-.903.238-1.806.238-1.972 0-3.089-1.022-1.117-1.045-1.117-2.732v-7.461h-2.875v-1.568h2.875v-2.828l1.996-.237v3.065h4.348l-.261 1.568h-4.087v7.437q0 1.069.57 1.592.57.522 1.83.522 1.283 0 2.4-.594z" fill="#b68051"/><path d="M-124.138 111.13l-.69 5.274h1.925v1.521h-2.162l-.499 4.04h-1.687l.523-4.04h-3.445l-.547 4.04h-1.687l.523-4.04h-1.877v-1.52h2.067l.737-5.275h-1.925v-1.568h2.115l.546-3.968h1.687l-.546 3.968h3.469l.546-3.968h1.687l-.546 3.968h1.9v1.568zm-5.845 5.274h3.445l.737-5.274h-3.493zM-116.402 111.082q1.45-1.9 3.588-1.9 2.4 0 3.54 1.71 1.14 1.71 1.14 4.8 0 2.946-1.306 4.752-1.307 1.782-3.659 1.782-2.162 0-3.398-1.569l-.142 1.307h-1.759v-17.558l1.996-.238zm2.852 9.528q1.568 0 2.4-1.236.855-1.235.855-3.682 0-2.424-.76-3.66-.737-1.235-2.21-1.235-.95 0-1.759.57-.784.57-1.378 1.426v6.201q.5.76 1.236 1.188.736.428 1.616.428zM-98.686 111.32q1.283 0 2.329.57 1.069.57 1.686 1.735.618 1.14.618 2.827 0 1.758-.689 3.089-.689 1.307-1.853 1.996-1.164.689-2.614.689-2.85 0-4.158-2.067-1.283-2.068-1.283-5.917 0-2.708.713-4.704.737-2.02 2.09-3.113 1.379-1.093 3.28-1.093 1.782 0 3.255.974l-.784 1.331q-1.164-.689-2.495-.689-1.853 0-2.922 1.782-1.07 1.758-1.117 4.776.76-1.14 1.734-1.663.975-.523 2.21-.523zm-.523 9.29q1.52 0 2.305-1.07.808-1.092.808-3.017 0-3.587-2.899-3.587-1.14 0-2.067.617-.903.618-1.544 1.687.047 2.804.855 4.087.808 1.283 2.542 1.283zM-80.257 109.49q0 1.165-.713 2.044t-2.115 1.663q1.663.689 2.59 1.806.927 1.116.927 2.566 0 1.33-.69 2.4-.689 1.069-1.972 1.663-1.283.594-2.97.594-1.71 0-2.97-.594-1.259-.618-1.924-1.664-.642-1.045-.642-2.352 0-2.732 3.303-4.277-1.354-.641-1.996-1.496-.618-.88-.618-2.234 0-1.402.737-2.376.736-.974 1.853-1.425 1.14-.476 2.305-.476 1.26 0 2.376.452 1.117.451 1.806 1.402.713.926.713 2.304zm-7.841.143q0 .903.404 1.45.427.522 1.116.855.69.308 2.091.76 1.212-.713 1.735-1.378.546-.69.546-1.735 0-1.235-.784-1.948-.76-.737-2.162-.737t-2.186.713q-.76.713-.76 2.02zm6.415 7.983q0-1.045-.523-1.687-.523-.665-1.378-1.045-.831-.38-2.495-.974-2.542 1.188-2.542 3.706 0 1.402.88 2.21.878.784 2.541.784 1.664 0 2.59-.832.927-.831.927-2.162zM-70.905 105.332q2.613 0 3.968 2.186 1.378 2.162 1.378 6.25 0 4.11-1.378 6.295-1.355 2.163-3.968 2.163-2.614 0-3.992-2.162-1.354-2.186-1.354-6.297 0-4.087 1.354-6.249 1.378-2.186 3.992-2.186zm0 1.616q-3.255 0-3.255 6.82 0 2.708.427 4.276l4.99-10.05q-.76-1.046-2.162-1.046zm0 13.662q3.255 0 3.255-6.843 0-2.732-.428-4.3l-4.966 10.121q.76 1.022 2.139 1.022zM-52.5 107.21h-6.463v5.155q.689-.404 1.354-.546.689-.167 1.45-.167 2.043 0 3.254 1.355 1.236 1.354 1.236 3.778 0 1.615-.69 2.85-.664 1.236-1.924 1.925-1.259.666-2.922.666-2.733 0-4.752-1.949l1.235-1.211q1.497 1.52 3.517 1.52 1.64 0 2.542-.998.903-.998.903-2.875 0-1.853-.808-2.66-.808-.832-2.162-.832-.641 0-1.164.118-.523.12-1.378.428h-1.616v-8.173h8.672zM-40.654 120.349h3.398v1.615h-9.433v-1.615h4.016v-12.57l-3.73 2.258-.88-1.402 4.871-3.041h1.758z" style="line-height:.99000001px;-inkscape-font-specification:'Fira Code'" font-size="23.76" font-family="Fira Code"/><path d="M-245.763 151.664v-16.37h2.044v14.54h7.484l-.261 1.83zM-227.62 133.298q.666 0 1.07.404.404.38.404.998 0 .617-.404 1.021-.404.38-1.07.38-.64 0-1.045-.38-.38-.404-.38-1.021 0-.618.38-.998.404-.404 1.046-.404zm1.593 5.845v10.93h3.516v1.591h-9.361v-1.592h3.849v-9.337h-3.73v-1.592zM-207.337 139.713q-.713.238-1.545.309-.831.047-2.115.047 2.186.998 2.186 3.16 0 1.901-1.259 3.09-1.26 1.164-3.445 1.164-1.117 0-1.877-.262-.285.214-.475.547-.167.332-.167.665 0 1.07 1.664 1.07h2.257q1.235 0 2.233.45 1.022.428 1.592 1.212.594.784.594 1.735 0 1.83-1.568 2.803-1.544.998-4.396.998-2.898 0-4.086-.902-1.188-.903-1.188-2.875h1.805q0 .784.286 1.235.308.475 1.045.69.76.237 2.138.237 2.02 0 2.97-.523.975-.523.975-1.544 0-.856-.785-1.331-.784-.451-2.02-.451h-2.233q-1.544 0-2.352-.666-.808-.689-.808-1.71 0-.594.357-1.165.356-.594 1.021-1.021-1.069-.547-1.592-1.378-.498-.856-.498-2.068 0-1.259.617-2.233.642-.998 1.759-1.544 1.14-.57 2.613-.57 2.139 0 3.255-.238 1.117-.238 2.448-.808zm-6.32.642q-1.45 0-2.187.784-.736.76-.736 2.09 0 1.331.736 2.139.76.784 2.234.784 1.33 0 2.02-.76.712-.784.712-2.186 0-2.851-2.78-2.851zM-201.882 140.877q.737-.95 1.806-1.473 1.069-.523 2.21-.523 3.516 0 3.516 3.707v9.076h-1.996v-9.052q0-1.117-.523-1.616-.522-.523-1.663-.523-.974 0-1.877.618t-1.473 1.45v9.123h-1.996V134.13l1.996-.213zM-179.676 151.023q-.641.427-1.568.665-.903.238-1.806.238-1.972 0-3.088-1.022-1.117-1.045-1.117-2.732v-7.461h-2.875v-1.568h2.875v-2.828l1.996-.237v3.065h4.348l-.262 1.568h-4.086v7.437q0 1.069.57 1.592.57.522 1.83.522 1.283 0 2.4-.594zM-170.585 149.312l4.42-14.018h2.067l-5.465 16.37h-2.139l-5.464-16.37h2.21zM-156.386 133.298q.666 0 1.07.404.403.38.403.998 0 .617-.403 1.021-.404.38-1.07.38-.641 0-1.045-.38-.38-.404-.38-1.021 0-.618.38-.998.404-.404 1.045-.404zm1.592 5.845v10.93h3.517v1.591h-9.362v-1.592h3.85v-9.337h-3.73v-1.592zM-144.895 140.782q1.45-1.9 3.588-1.9 2.4 0 3.54 1.71 1.14 1.71 1.14 4.8 0 2.946-1.306 4.752-1.307 1.782-3.66 1.782-2.162 0-3.397-1.568l-.143 1.306h-1.758v-17.558l1.996-.238zm2.851 9.528q1.568 0 2.4-1.236.855-1.235.855-3.682 0-2.424-.76-3.66-.737-1.235-2.21-1.235-.95 0-1.758.57-.784.57-1.378 1.426v6.201q.499.76 1.235 1.188.737.428 1.616.428zM-124.186 138.881q.76 0 1.759.262l-.286 4.253h-1.615v-2.685h-.119q-2.899 0-4.11 4.134v5.275h2.542v1.544h-6.51v-1.544h1.972v-9.433h-1.972v-1.544h3.469l.38 2.97q.76-1.616 1.805-2.424 1.07-.808 2.685-.808zM-109.416 148.932q0 .736.237 1.093.238.333.784.499l-.498 1.425q-1.83-.237-2.281-1.782-.666.856-1.687 1.307-.998.452-2.234.452-1.877 0-2.97-1.046-1.07-1.045-1.07-2.803 0-1.925 1.498-2.97 1.52-1.046 4.348-1.046h1.853v-1.022q0-1.33-.76-1.9-.76-.594-2.21-.594-1.425 0-3.255.641l-.546-1.52q2.21-.785 4.11-.785 2.281 0 3.469 1.07 1.212 1.069 1.212 2.97zm-5.18 1.497q.927 0 1.758-.475.856-.476 1.402-1.307v-3.208h-1.806q-1.995 0-2.875.665-.879.666-.879 1.949 0 2.376 2.4 2.376zM-104.15 139.143h1.71l.166 1.758q.737-.95 1.854-1.473 1.14-.547 2.28-.547 3.517 0 3.517 3.707v9.076h-1.996v-7.603q0-1.402-.166-2.138-.143-.737-.594-1.093-.452-.357-1.378-.357-1.022 0-1.925.618t-1.473 1.473v9.1h-1.996zM-79.949 151.023q-.641.427-1.568.665-.903.238-1.806.238-1.972 0-3.088-1.022-1.117-1.045-1.117-2.732v-7.461h-2.875v-1.568h2.875v-2.828l1.996-.237v3.065h4.348l-.262 1.568h-4.086v7.437q0 1.069.57 1.592.57.522 1.83.522 1.283 0 2.4-.594z" fill="#d7baa1"/><path d="M-52.905 140.83l-.689 5.274h1.925v1.521h-2.162l-.5 4.04h-1.686l.523-4.04h-3.446l-.546 4.04h-1.687l.523-4.04h-1.877v-1.52h2.067l.736-5.275h-1.924v-1.568h2.114l.547-3.968h1.687l-.547 3.968h3.47l.546-3.968h1.687l-.547 3.968h1.901v1.568zm-5.845 5.274h3.446l.736-5.274h-3.492zM-37.66 134.106v17.558h-1.758l-.19-1.64q-.69.951-1.592 1.426-.903.476-1.948.476-2.376 0-3.588-1.735-1.188-1.734-1.188-4.776 0-1.877.594-3.35.594-1.497 1.687-2.328 1.116-.856 2.613-.856 2.067 0 3.374 1.497v-6.51zm-4.847 6.391q-1.568 0-2.423 1.236-.832 1.235-.832 3.682 0 2.424.76 3.683.784 1.236 2.257 1.236 1.782 0 3.09-1.996v-6.225q-.523-.784-1.26-1.188-.737-.428-1.592-.428zM-29.828 151.878l-1.854-.546 6.368-14.375h-7.674v-1.663h9.694v1.544zM-16.675 140.782q1.45-1.9 3.588-1.9 2.4 0 3.54 1.71 1.14 1.71 1.14 4.8 0 2.946-1.306 4.752-1.307 1.782-3.659 1.782-2.162 0-3.398-1.568l-.142 1.306h-1.758v-17.558l1.995-.238zm2.852 9.528q1.568 0 2.4-1.236.855-1.235.855-3.682 0-2.424-.76-3.66-.737-1.235-2.21-1.235-.95 0-1.759.57-.784.57-1.378 1.426v6.201q.5.76 1.236 1.188.736.428 1.616.428zM4.558 148.932q0 .736.237 1.093.238.333.784.499l-.499 1.425q-1.83-.237-2.28-1.782-.666.856-1.688 1.307-.998.452-2.233.452-1.877 0-2.97-1.046-1.07-1.045-1.07-2.803 0-1.925 1.498-2.97 1.52-1.046 4.348-1.046h1.853v-1.022q0-1.33-.76-1.9-.76-.594-2.21-.594-1.426 0-3.255.641l-.547-1.52q2.21-.785 4.11-.785 2.282 0 3.47 1.07 1.212 1.069 1.212 2.97zm-5.18 1.497q.926 0 1.758-.475.855-.476 1.402-1.307v-3.208H.732q-1.996 0-2.875.665-.879.666-.879 1.949 0 2.376 2.4 2.376zM18.804 148.932q0 .736.238 1.093.237.333.784.499l-.499 1.425q-1.83-.237-2.281-1.782-.665.856-1.687 1.307-.998.452-2.233.452-1.877 0-2.97-1.046-1.07-1.045-1.07-2.803 0-1.925 1.497-2.97 1.52-1.046 4.348-1.046h1.854v-1.022q0-1.33-.76-1.9-.761-.594-2.21-.594-1.426 0-3.255.641l-.547-1.52q2.21-.785 4.11-.785 2.281 0 3.47 1.07 1.211 1.069 1.211 2.97zm-5.18 1.497q.927 0 1.759-.475.855-.476 1.402-1.307v-3.208h-1.806q-1.996 0-2.875.665-.88.666-.88 1.949 0 2.376 2.4 2.376zM30.58 150.049h3.398v1.615h-9.433v-1.615h4.015v-12.57l-3.73 2.258-.88-1.402 4.872-3.041h1.758z" style="line-height:.99000001px;-inkscape-font-specification:'Fira Code'" font-size="23.76" font-family="Fira Code"/><path d="M-235.855 173.096q0 4.657-2.138 6.463-2.138 1.805-5.275 1.805h-3.754v-16.37h3.493q3.445 0 5.56 1.734 2.114 1.735 2.114 6.368zm-2.21 0q0-2.661-.736-4.063-.713-1.426-1.782-1.877-1.07-.475-2.447-.475h-1.925v13.02h1.949q2.114 0 3.516-1.45 1.426-1.472 1.426-5.155zM-223.39 178.632q0 .736.238 1.093.237.333.784.499l-.5 1.425q-1.829-.237-2.28-1.782-.665.856-1.687 1.307-.998.452-2.234.452-1.877 0-2.97-1.046-1.069-1.045-1.069-2.803 0-1.925 1.497-2.97 1.52-1.046 4.348-1.046h1.853v-1.022q0-1.33-.76-1.9-.76-.594-2.21-.594-1.425 0-3.255.641l-.546-1.52q2.21-.785 4.11-.785 2.281 0 3.47 1.07 1.211 1.069 1.211 2.97zm-5.18 1.497q.927 0 1.759-.475.855-.476 1.401-1.307v-3.208h-1.805q-1.996 0-2.875.665-.88.666-.88 1.949 0 2.376 2.4 2.376zM-209.666 168.581q.76 0 1.758.262l-.285 4.253h-1.616v-2.685h-.118q-2.899 0-4.11 4.134v5.275h2.542v1.544h-6.51v-1.544h1.971v-9.433h-1.972v-1.544h3.47l.38 2.97q.76-1.616 1.805-2.424 1.07-.808 2.685-.808zM-201.74 163.568v17.796h-1.995v-17.558zm8.34 5.275l-5.607 5.655 6.273 6.866h-2.638l-6.154-6.843 5.56-5.678zM-184.832 179.012l4.42-14.018h2.067l-5.465 16.37h-2.138l-5.465-16.37h2.21zM-170.632 162.998q.665 0 1.069.404.404.38.404.998 0 .617-.404 1.021-.404.38-1.07.38-.64 0-1.045-.38-.38-.404-.38-1.021 0-.618.38-.998.404-.404 1.046-.404zm1.592 5.845v10.93h3.516v1.591h-9.361v-1.592h3.849v-9.337h-3.73v-1.592zM-159.142 170.482q1.45-1.9 3.588-1.9 2.4 0 3.54 1.71 1.14 1.71 1.14 4.8 0 2.946-1.306 4.752-1.307 1.782-3.66 1.782-2.161 0-3.397-1.568l-.142 1.306h-1.759v-17.558l1.996-.238zm2.851 9.528q1.569 0 2.4-1.236.855-1.235.855-3.682 0-2.424-.76-3.66-.736-1.235-2.21-1.235-.95 0-1.758.57-.784.57-1.378 1.426v6.201q.5.76 1.236 1.188.736.428 1.615.428zM-138.432 168.581q.76 0 1.758.262l-.285 4.253h-1.616v-2.685h-.119q-2.898 0-4.11 4.134v5.275h2.542v1.544h-6.51v-1.544h1.972v-9.433h-1.972v-1.544h3.469l.38 2.97q.76-1.616 1.806-2.424 1.069-.808 2.685-.808zM-123.663 178.632q0 .736.238 1.093.237.333.784.499l-.5 1.425q-1.829-.237-2.28-1.782-.665.856-1.687 1.307-.998.452-2.234.452-1.877 0-2.97-1.046-1.069-1.045-1.069-2.803 0-1.925 1.497-2.97 1.52-1.046 4.348-1.046h1.853v-1.022q0-1.33-.76-1.9-.76-.594-2.21-.594-1.425 0-3.255.641l-.546-1.52q2.21-.785 4.11-.785 2.281 0 3.47 1.07 1.211 1.069 1.211 2.97zm-5.18 1.497q.927 0 1.759-.475.855-.476 1.401-1.307v-3.208h-1.805q-1.996 0-2.875.665-.88.666-.88 1.949 0 2.376 2.4 2.376zM-118.397 168.843h1.71l.167 1.758q.736-.95 1.853-1.473 1.14-.547 2.28-.547 3.517 0 3.517 3.707v9.076h-1.996v-7.603q0-1.402-.166-2.138-.142-.737-.594-1.093-.451-.357-1.378-.357-1.022 0-1.925.618-.902.618-1.473 1.473v9.1h-1.995zM-94.195 180.723q-.642.427-1.568.665-.903.238-1.806.238-1.972 0-3.09-1.022-1.116-1.045-1.116-2.732v-7.461h-2.875v-1.568h2.875v-2.828l1.996-.237v3.065h4.348l-.261 1.568h-4.087v7.437q0 1.069.57 1.592.57.522 1.83.522 1.283 0 2.4-.594z" fill="#7c2b15"/><path d="M-67.151 170.53l-.69 5.274h1.925v1.521h-2.162l-.499 4.04h-1.687l.523-4.04h-3.445l-.547 4.04h-1.687l.523-4.04h-1.877v-1.52h2.067l.737-5.275h-1.925v-1.568h2.115l.546-3.968h1.687l-.546 3.968h3.469l.546-3.968h1.687l-.546 3.968h1.9v1.568zm-5.845 5.274h3.445l.737-5.274h-3.493zM-58.322 181.578l-1.853-.546 6.368-14.375h-7.675v-1.663h9.694v1.544zM-41.485 179.915q1.64 0 3.255-1.093l.95 1.307q-.784.689-1.948 1.093t-2.257.404q-2.78 0-4.348-1.735-1.545-1.758-1.545-4.728 0-1.877.69-3.374.712-1.497 2.043-2.352 1.33-.856 3.16-.856 2.423 0 4.181 1.474l-.974 1.306q-1.64-1.093-3.231-1.093-1.687 0-2.709 1.26-.998 1.235-.998 3.635 0 2.4.998 3.588 1.022 1.164 2.733 1.164zM-28.902 164.732q1.497 0 2.614.594 1.14.594 1.734 1.64.594 1.021.594 2.328 0 1.52-.712 2.946-.69 1.426-2.234 3.137-1.544 1.687-4.372 4.277h7.698l-.237 1.71h-9.742v-1.615q3.208-3.065 4.752-4.8 1.568-1.734 2.162-2.97.594-1.235.594-2.613 0-1.379-.784-2.163-.784-.784-2.162-.784-1.164 0-1.948.404-.76.38-1.568 1.33l-1.378-1.068q.974-1.212 2.162-1.782 1.212-.57 2.827-.57zM-16.675 170.482q1.45-1.9 3.588-1.9 2.4 0 3.54 1.71 1.14 1.71 1.14 4.8 0 2.946-1.306 4.752-1.307 1.782-3.659 1.782-2.162 0-3.398-1.568l-.142 1.306h-1.758v-17.558l1.995-.238zm2.852 9.528q1.568 0 2.4-1.236.855-1.235.855-3.682 0-2.424-.76-3.66-.737-1.235-2.21-1.235-.95 0-1.759.57-.784.57-1.378 1.426v6.201q.5.76 1.236 1.188.736.428 1.616.428zM2.086 179.749h3.398v1.615h-9.433v-1.615H.067v-12.57l-3.73 2.258-.88-1.402 4.871-3.041h1.758zM18.733 166.61H12.27v5.155q.69-.404 1.355-.546.689-.167 1.449-.167 2.043 0 3.255 1.355 1.236 1.354 1.236 3.778 0 1.615-.69 2.85-.665 1.236-1.924 1.925-1.26.666-2.923.666-2.732 0-4.752-1.949l1.236-1.211q1.497 1.52 3.516 1.52 1.64 0 2.543-.998.903-.998.903-2.875 0-1.853-.808-2.66-.808-.832-2.162-.832-.642 0-1.165.118-.522.12-1.378.428h-1.615v-8.173h8.672z" style="line-height:.99000001px;-inkscape-font-specification:'Fira Code'" font-size="23.76" font-family="Fira Code"/><path d="M-235.45 211.064h-1.997l-.499-8.553q-.142-2.257-.142-5.917l-2.756 11.524h-2.067l-2.947-11.524q.048.856.048 2.281 0 2.186-.095 3.636l-.428 8.553h-1.948l.926-16.37h2.875l2.662 11.214 2.542-11.214h2.899zM-230.375 207.429q0 1.212.499 1.782.522.547 1.615.547.998 0 1.925-.57.926-.571 1.473-1.426v-9.22h1.996v12.522h-1.711l-.166-1.687q-.737.927-1.83 1.45-1.069.499-2.186.499-1.782 0-2.708-.95-.903-.951-.903-2.733v-9.1h1.996zM-208.17 210.423q-.64.427-1.567.665-.903.238-1.806.238-1.972 0-3.089-1.022-1.117-1.045-1.117-2.732v-7.461h-2.874v-1.568h2.874v-2.828l1.996-.237v3.065h4.348l-.261 1.568h-4.087v7.437q0 1.069.57 1.592.57.522 1.83.522 1.283 0 2.4-.594zM-202.286 205.504q.071 2.068 1.07 3.113 1.021 1.045 2.565 1.045.927 0 1.687-.26.784-.286 1.664-.856l.926 1.33q-.879.69-2.02 1.07-1.116.38-2.257.38-2.708 0-4.229-1.759-1.497-1.782-1.497-4.752 0-1.877.666-3.35.665-1.497 1.9-2.328 1.236-.856 2.875-.856 2.376 0 3.73 1.664 1.379 1.64 1.379 4.49 0 .547-.048 1.07zm3.374-5.583q-1.45 0-2.352 1.045-.903 1.022-1.022 3.018h6.51q-.023-1.972-.855-3.018-.832-1.045-2.281-1.045zM-180.127 193.506v17.558h-1.758l-.19-1.64q-.69.951-1.592 1.426-.903.476-1.949.476-2.376 0-3.587-1.735-1.188-1.734-1.188-4.776 0-1.877.594-3.35.594-1.497 1.687-2.328 1.116-.856 2.613-.856 2.067 0 3.374 1.497v-6.51zm-4.847 6.391q-1.568 0-2.424 1.236-.831 1.235-.831 3.682 0 2.424.76 3.683.784 1.236 2.257 1.236 1.782 0 3.09-1.996v-6.225q-.524-.784-1.26-1.188-.737-.428-1.592-.428z" fill="#6c8394"/><path d="M-152.632 200.23l-.689 5.274h1.925v1.521h-2.162l-.5 4.04h-1.686l.523-4.04h-3.446l-.546 4.04h-1.687l.523-4.04h-1.877v-1.52h2.067l.736-5.275h-1.924v-1.568h2.114l.547-3.968h1.687l-.547 3.968h3.47l.546-3.968h1.687l-.547 3.968h1.901v1.568zm-5.845 5.274h3.446l.736-5.274h-3.493zM-141.426 200.42q1.283 0 2.328.57 1.07.57 1.687 1.735.618 1.14.618 2.827 0 1.758-.689 3.089-.689 1.307-1.853 1.996-1.164.689-2.614.689-2.851 0-4.158-2.067-1.283-2.068-1.283-5.917 0-2.708.713-4.704.736-2.02 2.09-3.113 1.379-1.093 3.28-1.093 1.782 0 3.255.974l-.784 1.331q-1.165-.689-2.495-.689-1.853 0-2.923 1.782-1.069 1.758-1.116 4.776.76-1.14 1.734-1.663.974-.523 2.21-.523zm-.523 9.29q1.52 0 2.305-1.07.808-1.092.808-3.017 0-3.588-2.899-3.588-1.14 0-2.067.618-.903.618-1.545 1.687.048 2.804.856 4.087.808 1.283 2.542 1.283zM-126.966 209.615q1.64 0 3.256-1.093l.95 1.307q-.784.689-1.948 1.093-1.165.404-2.258.404-2.78 0-4.348-1.735-1.544-1.758-1.544-4.728 0-1.877.689-3.374.713-1.497 2.043-2.352 1.33-.856 3.16-.856 2.424 0 4.182 1.474l-.974 1.306q-1.64-1.093-3.231-1.093-1.687 0-2.709 1.26-.998 1.235-.998 3.635 0 2.4.998 3.588 1.022 1.164 2.732 1.164zM-108.75 198.59q0 1.165-.714 2.044-.713.879-2.114 1.663 1.663.689 2.59 1.806.926 1.116.926 2.566 0 1.33-.689 2.4-.689 1.069-1.972 1.663-1.283.594-2.97.594-1.71 0-2.97-.594-1.26-.618-1.925-1.664-.641-1.045-.641-2.352 0-2.732 3.303-4.277-1.355-.641-1.996-1.496-.618-.88-.618-2.234 0-1.402.736-2.376.737-.974 1.854-1.426 1.14-.475 2.304-.475 1.26 0 2.376.452 1.117.451 1.806 1.402.713.926.713 2.304zm-7.842.143q0 .903.404 1.45.428.522 1.117.855.689.308 2.09.76 1.213-.713 1.735-1.378.547-.69.547-1.735 0-1.235-.784-1.948-.76-.737-2.162-.737t-2.186.713q-.76.713-.76 2.02zm6.415 7.983q0-1.045-.522-1.687-.523-.665-1.378-1.045-.832-.38-2.495-.974-2.542 1.188-2.542 3.706 0 1.402.879 2.21.879.784 2.542.784 1.663 0 2.59-.832.926-.831.926-2.162zM-100.135 194.432q1.497 0 2.637.57 1.14.547 1.758 1.497.618.927.618 2.044 0 1.425-.927 2.495-.926 1.045-2.257 1.306 1.545.12 2.614 1.165 1.093 1.045 1.093 2.85 0 1.403-.713 2.543-.713 1.14-2.02 1.782-1.283.642-2.946.642-1.45 0-2.804-.547-1.33-.546-2.21-1.615l1.331-1.093q.666.784 1.616 1.211.974.404 2.02.404 1.71 0 2.66-.879.975-.903.975-2.447 0-3.113-3.398-3.113h-1.354l.237-1.592h.975q1.283 0 2.186-.712.902-.737.902-2.139 0-1.307-.879-2.02-.855-.736-2.21-.736-1.021 0-1.829.356-.784.357-1.64 1.14l-1.092-1.21q1.996-1.902 4.657-1.902zM-85.413 194.456q2.684 0 4.015 1.663 1.33 1.663 1.33 4.657 0 3.445-.902 5.489-.88 2.043-2.733 3.231-1.83 1.164-5.084 2.067l-.476-1.52q3.493-.903 5.251-2.519 1.782-1.616 1.83-4.467-.594.88-1.592 1.45-.998.57-2.28.57-1.355 0-2.424-.642-1.046-.641-1.64-1.806-.594-1.187-.594-2.78 0-1.71.69-2.922.712-1.212 1.9-1.83 1.212-.64 2.709-.64zm-.31 9.005q2.14 0 3.588-2.162.048-2.875-.736-4.04-.784-1.187-2.542-1.187-1.592 0-2.4.974-.808.974-.808 2.875 0 1.806.737 2.685.76.855 2.162.855zM-65.488 205.48v1.616h-2.115v3.968h-1.924v-3.968h-6.796v-1.473l4.8-11.19 1.663.712-4.348 10.336h4.705l.166-4.633h1.734v4.633z" style="line-height:.99000001px;-inkscape-font-specification:'Fira Code'" font-size="23.76" font-family="Fira Code"/><path d="M-245.763 240.764v-16.37h2.044v14.54h7.484l-.261 1.83zM-227.62 222.398q.666 0 1.07.404.404.38.404.998 0 .617-.404 1.021-.404.38-1.07.38-.64 0-1.045-.38-.38-.404-.38-1.021 0-.618.38-.998.404-.404 1.046-.404zm1.593 5.845v10.93h3.516v1.591h-9.361v-1.592h3.849v-9.337h-3.73v-1.592zM-207.337 228.813q-.713.238-1.545.309-.831.047-2.115.047 2.186.998 2.186 3.16 0 1.901-1.259 3.09-1.26 1.164-3.445 1.164-1.117 0-1.877-.262-.285.214-.475.547-.167.332-.167.665 0 1.07 1.664 1.07h2.257q1.235 0 2.233.45 1.022.428 1.592 1.212.594.784.594 1.735 0 1.83-1.568 2.803-1.544.998-4.396.998-2.898 0-4.086-.902-1.188-.903-1.188-2.875h1.805q0 .784.286 1.235.308.475 1.045.69.76.237 2.138.237 2.02 0 2.97-.523.975-.523.975-1.544 0-.856-.785-1.331-.784-.451-2.02-.451h-2.233q-1.544 0-2.352-.666-.808-.689-.808-1.71 0-.594.357-1.165.356-.594 1.021-1.021-1.069-.547-1.592-1.378-.498-.856-.498-2.068 0-1.259.617-2.233.642-.998 1.759-1.544 1.14-.57 2.613-.57 2.139 0 3.255-.238 1.117-.238 2.448-.808zm-6.32.642q-1.45 0-2.187.784-.736.76-.736 2.09 0 1.331.736 2.139.76.784 2.234.784 1.33 0 2.02-.76.712-.784.712-2.186 0-2.851-2.78-2.851zM-201.882 229.977q.737-.95 1.806-1.473 1.069-.523 2.21-.523 3.516 0 3.516 3.707v9.076h-1.996v-9.052q0-1.117-.523-1.616-.522-.523-1.663-.523-.974 0-1.877.618t-1.473 1.45v9.123h-1.996V223.23l1.996-.213zM-179.676 240.123q-.641.427-1.568.665-.903.238-1.806.238-1.972 0-3.088-1.022-1.117-1.045-1.117-2.732v-7.461h-2.875v-1.568h2.875v-2.828l1.996-.237v3.065h4.348l-.262 1.568h-4.086v7.437q0 1.069.57 1.592.57.522 1.83.522 1.283 0 2.4-.594zM-164.217 240.764h-1.996l-.499-8.553q-.143-2.258-.143-5.917l-2.756 11.524h-2.067l-2.946-11.524q.047.856.047 2.281 0 2.186-.095 3.636l-.427 8.553h-1.949l.927-16.37h2.875l2.661 11.214 2.542-11.214h2.9zM-159.142 237.129q0 1.212.5 1.782.522.547 1.615.547.998 0 1.924-.57.927-.571 1.474-1.426v-9.22h1.995v12.522h-1.71l-.167-1.687q-.736.927-1.83 1.45-1.068.499-2.185.499-1.782 0-2.709-.95-.903-.951-.903-2.733v-9.1h1.996zM-136.935 240.123q-.642.427-1.569.665-.903.238-1.805.238-1.972 0-3.09-1.022-1.116-1.045-1.116-2.732v-7.461h-2.875v-1.568h2.875v-2.828l1.996-.237v3.065h4.348l-.261 1.568h-4.087v7.437q0 1.069.57 1.592.57.522 1.83.522 1.283 0 2.4-.594zM-131.052 235.204q.071 2.068 1.069 3.113 1.022 1.045 2.566 1.045.927 0 1.687-.26.784-.286 1.663-.856l.927 1.33q-.88.69-2.02 1.07-1.117.38-2.257.38-2.709 0-4.23-1.759-1.496-1.782-1.496-4.752 0-1.877.665-3.35.665-1.497 1.9-2.328 1.236-.856 2.876-.856 2.376 0 3.73 1.664 1.378 1.64 1.378 4.49 0 .547-.047 1.07zm3.374-5.583q-1.45 0-2.353 1.045-.902 1.022-1.021 3.018h6.51q-.024-1.972-.855-3.018-.832-1.045-2.281-1.045zM-108.894 223.206v17.558h-1.758l-.19-1.64q-.689.951-1.592 1.426-.903.476-1.948.476-2.376 0-3.588-1.735-1.188-1.734-1.188-4.776 0-1.877.594-3.35.594-1.497 1.687-2.328 1.117-.856 2.614-.856 2.067 0 3.374 1.497v-6.51zm-4.847 6.391q-1.568 0-2.423 1.236-.832 1.235-.832 3.682 0 2.424.76 3.683.785 1.236 2.258 1.236 1.782 0 3.089-1.996v-6.225q-.523-.784-1.26-1.188-.736-.428-1.592-.428z" fill="#c4ccd4"/><path d="M-81.398 229.93l-.689 5.274h1.925v1.521h-2.163l-.499 4.04h-1.687l.523-4.04h-3.445l-.546 4.04h-1.687l.522-4.04h-1.877v-1.52h2.067l.737-5.275h-1.925v-1.568h2.115l.546-3.968h1.687l-.546 3.968h3.469l.546-3.968h1.687l-.546 3.968h1.9v1.568zm-5.845 5.274h3.445l.737-5.274h-3.493zM-69.979 239.315q1.64 0 3.255-1.093l.95 1.307q-.783.689-1.947 1.093-1.165.404-2.258.404-2.78 0-4.348-1.735-1.544-1.758-1.544-4.728 0-1.877.689-3.374.713-1.497 2.043-2.352 1.33-.856 3.16-.856 2.424 0 4.182 1.474l-.974 1.306q-1.64-1.093-3.231-1.093-1.687 0-2.71 1.26-.997 1.235-.997 3.635 0 2.4.998 3.588 1.022 1.164 2.732 1.164zM-51.241 235.18v1.616h-2.115v3.968h-1.925v-3.968h-6.795v-1.473l4.8-11.19 1.663.712-4.348 10.336h4.704l.167-4.634h1.734v4.634zM-41.485 239.315q1.64 0 3.255-1.093l.95 1.307q-.784.689-1.948 1.093t-2.257.404q-2.78 0-4.348-1.735-1.545-1.758-1.545-4.728 0-1.877.69-3.374.712-1.497 2.043-2.352 1.33-.856 3.16-.856 2.423 0 4.181 1.474l-.974 1.306q-1.64-1.093-3.231-1.093-1.687 0-2.709 1.26-.998 1.235-.998 3.635 0 2.4.998 3.588 1.022 1.164 2.733 1.164zM-27.239 239.315q1.64 0 3.256-1.093l.95 1.307q-.784.689-1.948 1.093-1.165.404-2.258.404-2.78 0-4.348-1.735-1.544-1.758-1.544-4.728 0-1.877.689-3.374.713-1.497 2.043-2.352 1.33-.856 3.16-.856 2.424 0 4.182 1.474l-.974 1.306q-1.64-1.093-3.231-1.093-1.687 0-2.709 1.26-.998 1.235-.998 3.635 0 2.4.998 3.588 1.022 1.164 2.732 1.164zM-9.166 223.206v17.558h-1.759l-.19-1.64q-.689.951-1.592 1.426-.903.476-1.948.476-2.376 0-3.588-1.735-1.188-1.734-1.188-4.776 0-1.877.594-3.35.594-1.497 1.687-2.328 1.117-.856 2.614-.856 2.067 0 3.374 1.497v-6.51zm-4.848 6.391q-1.568 0-2.423 1.236-.832 1.235-.832 3.682 0 2.424.76 3.683.785 1.236 2.258 1.236 1.782 0 3.089-1.996v-6.225q-.523-.784-1.26-1.188-.736-.428-1.592-.428zM5.746 235.18v1.616H3.63v3.968H1.706v-3.968h-6.795v-1.473l4.8-11.19 1.663.712-4.348 10.336H1.73l.166-4.634h1.735v4.634z" style="line-height:.99000001px;-inkscape-font-specification:'Fira Code'" font-size="23.76" font-family="Fira Code"/><path d="M-235.855 262.196q0 4.657-2.138 6.463-2.138 1.805-5.275 1.805h-3.754v-16.37h3.493q3.445 0 5.56 1.734 2.114 1.735 2.114 6.368zm-2.21 0q0-2.661-.736-4.063-.713-1.426-1.782-1.877-1.07-.475-2.447-.475h-1.925v13.02h1.949q2.114 0 3.516-1.45 1.426-1.472 1.426-5.155zM-223.39 267.732q0 .736.238 1.093.237.333.784.499l-.5 1.425q-1.829-.237-2.28-1.782-.665.856-1.687 1.307-.998.452-2.234.452-1.877 0-2.97-1.046-1.069-1.045-1.069-2.803 0-1.925 1.497-2.97 1.52-1.046 4.348-1.046h1.853v-1.022q0-1.33-.76-1.9-.76-.594-2.21-.594-1.425 0-3.255.641l-.546-1.52q2.21-.785 4.11-.785 2.281 0 3.47 1.07 1.211 1.069 1.211 2.97zm-5.18 1.497q.927 0 1.759-.475.855-.476 1.401-1.307v-3.208h-1.805q-1.996 0-2.875.665-.88.666-.88 1.949 0 2.376 2.4 2.376zM-209.666 257.681q.76 0 1.758.262l-.285 4.253h-1.616v-2.685h-.118q-2.899 0-4.11 4.134v5.275h2.542v1.544h-6.51v-1.544h1.971v-9.433h-1.972v-1.544h3.47l.38 2.97q.76-1.616 1.805-2.424 1.07-.808 2.685-.808zM-201.74 252.668v17.796h-1.995v-17.558zm8.34 5.275l-5.607 5.655 6.273 6.866h-2.638l-6.154-6.843 5.56-5.678zM-178.464 270.464h-1.996l-.499-8.553q-.142-2.258-.142-5.917l-2.756 11.524h-2.068l-2.946-11.524q.048.856.048 2.281 0 2.186-.095 3.636l-.428 8.553h-1.948l.926-16.37h2.875l2.661 11.214 2.543-11.214h2.898zM-173.389 266.829q0 1.212.5 1.782.522.547 1.615.547.998 0 1.925-.57.926-.571 1.473-1.426v-9.22h1.996v12.522h-1.711l-.166-1.687q-.737.927-1.83 1.45-1.07.499-2.186.499-1.782 0-2.709-.95-.902-.951-.902-2.733v-9.1h1.995zM-151.182 269.823q-.642.427-1.568.665-.903.238-1.806.238-1.972 0-3.089-1.022-1.117-1.045-1.117-2.732v-7.461h-2.875v-1.568h2.875v-2.828l1.996-.237v3.065h4.348l-.261 1.568h-4.087v7.437q0 1.069.57 1.592.57.522 1.83.522 1.283 0 2.4-.594zM-145.299 264.904q.071 2.068 1.07 3.113 1.02 1.045 2.565 1.045.927 0 1.687-.26.784-.286 1.663-.856l.927 1.33q-.88.69-2.02 1.07-1.116.38-2.257.38-2.708 0-4.229-1.759-1.497-1.782-1.497-4.752 0-1.877.665-3.35.666-1.497 1.901-2.328 1.236-.856 2.875-.856 2.376 0 3.73 1.664 1.379 1.64 1.379 4.49 0 .547-.048 1.07zm3.374-5.583q-1.45 0-2.352 1.045-.903 1.022-1.022 3.018h6.51q-.024-1.972-.855-3.018-.832-1.045-2.281-1.045zM-123.14 252.906v17.558h-1.758l-.19-1.64q-.69.951-1.592 1.426-.903.476-1.949.476-2.376 0-3.588-1.735-1.188-1.734-1.188-4.776 0-1.877.594-3.35.594-1.497 1.687-2.328 1.117-.856 2.614-.856 2.067 0 3.374 1.497v-6.51zm-4.847 6.391q-1.568 0-2.424 1.236-.831 1.235-.831 3.682 0 2.424.76 3.683.784 1.236 2.257 1.236 1.782 0 3.089-1.996v-6.225q-.523-.784-1.26-1.188-.736-.428-1.591-.428z" fill="#425c6a"/><path d="M-95.645 259.63l-.689 5.274h1.925v1.521h-2.162l-.5 4.04h-1.686l.522-4.04h-3.445l-.546 4.04h-1.687l.523-4.04h-1.877v-1.52h2.067l.736-5.275h-1.924v-1.568h2.114l.547-3.968h1.687l-.547 3.968h3.47l.546-3.968h1.687l-.547 3.968h1.9v1.568zm-5.845 5.274h3.446l.736-5.274h-3.493zM-79.735 264.88v1.616h-2.114v3.968h-1.925v-3.968h-6.795v-1.473l4.8-11.19 1.662.712-4.348 10.336h4.705l.166-4.633h1.735v4.633zM-71.642 253.832q1.497 0 2.614.594 1.14.594 1.734 1.64.594 1.021.594 2.328 0 1.52-.713 2.946-.689 1.426-2.233 3.137-1.544 1.687-4.372 4.277h7.698l-.237 1.71H-76.3v-1.615q3.208-3.065 4.752-4.8 1.568-1.734 2.162-2.97.594-1.235.594-2.614 0-1.378-.784-2.162t-2.162-.784q-1.164 0-1.948.404-.76.38-1.568 1.33l-1.379-1.068q.975-1.212 2.163-1.782 1.211-.57 2.827-.57zM-52.5 255.71h-6.463v5.155q.689-.404 1.354-.546.689-.167 1.45-.167 2.043 0 3.254 1.355 1.236 1.354 1.236 3.778 0 1.615-.69 2.85-.664 1.236-1.924 1.925-1.259.666-2.922.666-2.733 0-4.752-1.949l1.235-1.211q1.497 1.52 3.517 1.52 1.64 0 2.542-.998.903-.998.903-2.875 0-1.853-.808-2.66-.808-.832-2.162-.832-.641 0-1.164.118-.523.12-1.378.428h-1.616v-8.173h8.672zM-41.485 269.015q1.64 0 3.255-1.093l.95 1.307q-.784.689-1.948 1.093t-2.257.404q-2.78 0-4.348-1.735-1.545-1.758-1.545-4.728 0-1.877.69-3.374.712-1.497 2.043-2.352 1.33-.856 3.16-.856 2.423 0 4.181 1.474l-.974 1.306q-1.64-1.093-3.231-1.093-1.687 0-2.709 1.26-.998 1.235-.998 3.635 0 2.4.998 3.588 1.022 1.164 2.733 1.164zM-27.452 259.82q1.283 0 2.328.57 1.07.57 1.687 1.735.618 1.14.618 2.827 0 1.758-.69 3.089-.688 1.307-1.853 1.996-1.164.689-2.613.689-2.851 0-4.158-2.067-1.283-2.068-1.283-5.917 0-2.708.713-4.704.736-2.02 2.09-3.113 1.379-1.093 3.28-1.093 1.781 0 3.255.974l-.785 1.331q-1.164-.689-2.494-.689-1.854 0-2.923 1.782-1.069 1.758-1.117 4.776.76-1.14 1.735-1.663.974-.523 2.21-.523zm-.523 9.29q1.52 0 2.305-1.07.807-1.092.807-3.017 0-3.588-2.898-3.588-1.14 0-2.067.618-.903.618-1.545 1.687.048 2.804.856 4.087.807 1.283 2.542 1.283zM-9.69 267.732q0 .736.238 1.093.238.333.784.499l-.498 1.425q-1.83-.237-2.281-1.782-.666.856-1.687 1.307-.998.452-2.234.452-1.877 0-2.97-1.046-1.069-1.045-1.069-2.803 0-1.925 1.497-2.97 1.52-1.046 4.348-1.046h1.853v-1.022q0-1.33-.76-1.9-.76-.594-2.21-.594-1.425 0-3.255.641l-.546-1.52q2.21-.785 4.11-.785 2.281 0 3.47 1.07 1.21 1.069 1.21 2.97zm-5.179 1.497q.927 0 1.758-.475.856-.476 1.402-1.307v-3.208h-1.806q-1.995 0-2.875.665-.879.666-.879 1.949 0 2.376 2.4 2.376z" style="line-height:.99000001px;-inkscape-font-specification:'Fira Code'" font-size="23.76" font-family="Fira Code"/></g></g></svg>